<svg width="595" height="842" viewBox="0 0 595 842" fill="none" xmlns="http://www.w3.org/2000/svg">
<g clip-path="url(#clip0_149_2)">
<g clip-path="url(#clip1_149_2)">
<path d="M617.401 666.008C607.727 667.353 582.547 539.112 561.16 379.576C539.773 220.039 530.278 89.6196 539.952 88.2753M539.952 88.2753C539.952 88.2753 539.952 88.2753 539.952 88.2753Z" stroke="#E5E4F5" stroke-width="2.09357"/>
<path d="M569.651 669.121C524.167 668.754 491.336 537.734 496.321 376.479C501.305 215.223 542.218 84.7968 587.702 85.1632M587.702 85.1632C587.702 85.1632 587.702 85.1632 587.702 85.1632Z" stroke="#E5E4F5" stroke-width="2.09357"/>
<path d="M516.28 664.273C439.736 650.853 405.62 511.422 440.081 352.844C474.542 194.266 564.529 76.5916 641.073 90.0108M641.073 90.0108C641.073 90.0108 641.073 90.0108 641.073 90.0108Z" stroke="#E5E4F5" stroke-width="2.09357"/>
<path d="M453.419 646.447C356.998 607.919 334.913 456.114 404.091 307.381C473.269 158.648 607.513 69.3092 703.934 107.837M703.934 107.837C703.934 107.837 703.934 107.837 703.934 107.837Z" stroke="#E5E4F5" stroke-width="2.09357"/>
<path d="M379.58 604.251C283.53 529.628 294.804 367.454 404.762 242.025C514.72 116.596 681.723 75.4091 777.773 150.032M777.773 150.032C777.773 150.032 777.773 150.032 777.773 150.032Z" stroke="#E5E4F5" stroke-width="2.09357"/>
<path d="M306.466 520.503C241.594 407.537 310.879 251.774 461.216 172.598C611.554 93.4216 786.016 120.814 850.887 233.78M850.887 233.78C850.887 233.78 850.887 233.78 850.887 233.78Z" stroke="#E5E4F5" stroke-width="2.09357"/>
<path d="M270.054 396.153C263.858 264.656 397.01 149.544 567.458 139.044C737.905 128.544 881.103 226.633 887.299 358.13" stroke="#E5E4F5" stroke-width="2.09357"/>
<path d="M291.204 275.873C339.591 158.724 507.523 109.095 666.29 165.024C825.057 220.953 914.537 361.261 866.149 478.41" stroke="#E5E4F5" stroke-width="2.09357"/>
<path d="M342.46 193.627C417.133 108.445 583.425 121.553 713.884 222.906C844.343 324.258 889.566 475.474 814.893 560.657" stroke="#E5E4F5" stroke-width="2.09357"/>
<path d="M397.099 144.517C471.281 92.1376 612.712 153.825 712.995 282.3C813.278 410.775 834.436 557.387 760.254 609.766" stroke="#E5E4F5" stroke-width="2.09357"/>
<path d="M447.498 115.407C502.969 89.7371 606.667 186.11 679.115 330.662C751.563 475.215 765.326 613.207 709.855 638.877" stroke="#E5E4F5" stroke-width="2.09357"/>
<path d="M494.252 97.9794C519.906 90.5903 578.501 209.586 625.127 363.763C671.753 517.94 688.755 648.915 663.101 656.304" stroke="#E5E4F5" stroke-width="2.09357"/>
<path d="M676.804 652.033C646.368 662.263 613.338 668.131 581.241 669.011" stroke="#E5E4F5" stroke-width="2.09357"/>
<path d="M776.499 597.497C701.334 658.186 565.052 683.136 472.105 653.225C471.015 652.874 469.934 652.517 468.862 652.153" stroke="#E5E4F5" stroke-width="2.09357"/>
<path d="M827.475 545.326C769.464 620.938 622.035 668.789 498.183 652.202C460.355 647.136 427.624 636.311 403.035 620.733" stroke="#E5E4F5" stroke-width="2.09357"/>
<path d="M860.546 491.105C820.494 576.267 670.316 642.053 525.114 638.044C450.29 635.979 387.804 615.312 353.312 581.222" stroke="#E5E4F5" stroke-width="2.09357"/>
<path d="M880.088 435.25C858.632 525.897 712.069 605.883 552.731 613.903C442.974 619.428 351.109 589.045 315.726 535.516" stroke="#E5E4F5" stroke-width="2.09357"/>
<path d="M887.497 378.801C884.915 471.296 747.484 561.998 580.535 581.388C439.26 597.796 318.338 557.803 289.327 485.073" stroke="#E5E4F5" stroke-width="2.09357"/>
<path d="M883.369 323.009C899.518 413.903 776.193 511.823 607.916 541.72C439.639 571.616 290.132 522.168 273.984 431.274M273.984 431.274C273.984 431.274 273.984 431.274 273.984 431.274Z" stroke="#E5E4F5" stroke-width="2.09357"/>
<path d="M868.026 269.21C902.31 355.156 797.632 456.691 634.22 495.993C470.809 535.296 310.546 497.484 276.262 411.538C271.658 399.996 269.51 387.904 269.856 375.483" stroke="#E5E4F5" stroke-width="2.09357"/>
<path d="M841.627 218.768C892.993 296.477 811.13 397.861 658.78 445.216C506.43 492.571 341.285 467.964 289.919 390.255C275.625 368.63 271.295 344.259 277.265 319.034" stroke="#E5E4F5" stroke-width="2.09357"/>
<path d="M804.041 173.061C870.976 239.215 815.851 336.44 680.915 390.219C545.98 443.998 382.331 433.966 315.397 367.813C285.59 338.353 278.971 301.102 296.807 263.178" stroke="#E5E4F5" stroke-width="2.09357"/>
<path d="M754.317 133.551C834.823 184.555 810.46 273.108 699.9 331.34C589.341 389.573 434.452 395.433 353.947 344.43C300.814 310.768 291.592 258.861 329.878 208.958" stroke="#E5E4F5" stroke-width="2.09357"/>
<path d="M688.491 102.131C779.961 133.215 791.726 207.131 714.77 267.228C637.814 327.324 501.278 350.844 409.808 319.76C319.592 289.102 306.719 216.644 380.854 156.787" stroke="#E5E4F5" stroke-width="2.09357"/>
<path d="M576.112 85.2725C673.97 82.5906 739.323 125.958 722.082 182.137C704.84 238.315 611.534 286.031 513.676 288.713C415.818 291.395 350.465 248.027 367.706 191.848C378.675 156.108 421.513 122.094 480.549 102.25" stroke="#E5E4F5" stroke-width="2.09357"/>
<path d="M679.798 143.146C687.129 184.412 631.141 228.868 554.745 242.44C478.349 256.013 410.474 233.564 403.143 192.298C395.811 151.032 451.799 106.577 528.196 93.0038C604.592 79.431 672.467 101.881 679.798 143.146Z" stroke="#E5E4F5" stroke-width="2.09357"/>
<path d="M633.118 136.88C638.108 164.969 599.999 195.229 547.999 204.467C495.998 213.706 449.798 198.425 444.808 170.336C439.817 142.247 477.926 111.987 529.927 102.749C581.927 93.5101 628.128 108.791 633.118 136.88Z" stroke="#E5E4F5" stroke-width="2.09357"/>
<path d="M585.098 136.53C587.624 150.75 568.332 166.069 542.008 170.746C515.683 175.423 492.295 167.687 489.769 153.466C487.242 139.246 506.534 123.927 532.859 119.25C559.183 114.573 582.571 122.31 585.098 136.53Z" stroke="#E5E4F5" stroke-width="2.09357"/>
<path d="M883.369 323.009C911.523 481.475 797.93 634.173 629.653 664.069C461.376 693.966 302.137 589.74 273.984 431.274C245.83 272.809 359.423 120.111 527.7 90.2143C695.977 60.3177 855.216 164.543 883.369 323.009Z" stroke="#E5E4F5" stroke-width="2.09357"/>
</g>
<path d="M783.332 148.37C781.682 148.516 780.462 149.972 780.608 151.622C780.754 153.273 782.21 154.493 783.86 154.347L783.596 151.358L783.332 148.37ZM91.7697 656.048L94.4812 654.764C77.1029 618.053 87.0785 565.671 119.64 508.853C152.103 452.209 206.617 391.909 276.786 339.91L275 337.5L273.214 335.09C202.509 387.486 147.382 448.38 114.435 505.87C81.5864 563.187 70.3837 617.882 89.0581 657.332L91.7697 656.048ZM644.25 628.776L642.967 626.064C515.686 686.315 390.461 719.422 290.963 724.333C241.207 726.789 198.039 722.187 164.31 710.522C130.593 698.861 106.539 680.237 94.4812 654.764L91.7697 656.048L89.0581 657.332C102.016 684.705 127.643 704.19 162.349 716.192C197.041 728.19 241.036 732.805 291.259 730.326C391.72 725.367 517.72 691.991 645.534 631.487L644.25 628.776ZM783.596 151.358L783.86 154.347C839.36 149.442 890.249 152.103 930.497 162.963C970.806 173.839 999.937 192.784 1012.84 220.041L1015.55 218.758L1018.26 217.474C1004.28 187.934 973.149 168.256 932.06 157.17C890.911 146.067 839.265 143.427 783.332 148.37L783.596 151.358ZM1015.55 218.758L1012.84 220.041C1024.9 245.514 1024.05 275.924 1011.7 309.392C999.342 342.874 975.539 379.179 942.1 416.105C875.231 489.946 770.248 565.814 642.967 626.064L644.25 628.776L645.534 631.487C773.348 570.984 879.031 494.688 946.547 420.132C980.3 382.86 1004.62 345.907 1017.33 311.47C1030.05 277.019 1031.22 244.848 1018.26 217.474L1015.55 218.758Z" fill="#E5E4F5"/>
</g>
<defs>
<clipPath id="clip0_149_2">
<rect width="595" height="842" fill="white"/>
</clipPath>
<clipPath id="clip1_149_2">
<rect width="684.296" height="644.398" fill="white" transform="translate(195.802 119.7) rotate(-10.0742)"/>
</clipPath>
</defs>
</svg>
